<mxfile host="app.diagrams.net" modified="2024-03-15T12:09:43.614Z" agent="Mozilla/5.0 (Windows NT 10.0; Win64; x64) AppleWebKit/537.36 (KHTML, like Gecko) Chrome/122.0.0.0 Safari/537.36" etag="m-vNB-Ga-9Ob9AAGtGXc" version="22.1.16" type="github">
  <diagram name="페이지-1" id="4Kzpew66DPg3UYz8mGqC">
    <mxGraphModel dx="1172" dy="1040" grid="1" gridSize="10" guides="1" tooltips="1" connect="1" arrows="1" fold="1" page="1" pageScale="1" pageWidth="827" pageHeight="1169" math="0" shadow="0">
      <root>
        <mxCell id="0" />
        <mxCell id="1" parent="0" />
        <mxCell id="-f8Y4yXEr9Oxtdk6bjGY-105" value="" style="rounded=0;whiteSpace=wrap;html=1;" vertex="1" parent="1">
          <mxGeometry x="170" y="140" width="440" height="700" as="geometry" />
        </mxCell>
        <mxCell id="-f8Y4yXEr9Oxtdk6bjGY-127" value="" style="ellipse;whiteSpace=wrap;html=1;" vertex="1" parent="1">
          <mxGeometry x="236.25" y="757" width="33.75" height="26" as="geometry" />
        </mxCell>
        <mxCell id="-f8Y4yXEr9Oxtdk6bjGY-121" value="" style="ellipse;whiteSpace=wrap;html=1;" vertex="1" parent="1">
          <mxGeometry x="261.56" y="778" width="58.44" height="32" as="geometry" />
        </mxCell>
        <mxCell id="-f8Y4yXEr9Oxtdk6bjGY-122" value="" style="ellipse;whiteSpace=wrap;html=1;" vertex="1" parent="1">
          <mxGeometry x="317.5" y="762" width="33.75" height="26" as="geometry" />
        </mxCell>
        <mxCell id="-f8Y4yXEr9Oxtdk6bjGY-123" value="" style="ellipse;whiteSpace=wrap;html=1;" vertex="1" parent="1">
          <mxGeometry x="357.25" y="762" width="33.75" height="26" as="geometry" />
        </mxCell>
        <mxCell id="-f8Y4yXEr9Oxtdk6bjGY-124" value="" style="ellipse;whiteSpace=wrap;html=1;" vertex="1" parent="1">
          <mxGeometry x="361.37" y="729" width="33.75" height="26" as="geometry" />
        </mxCell>
        <mxCell id="-f8Y4yXEr9Oxtdk6bjGY-120" value="" style="ellipse;whiteSpace=wrap;html=1;" vertex="1" parent="1">
          <mxGeometry x="357.25" y="700" width="33.75" height="26" as="geometry" />
        </mxCell>
        <mxCell id="-f8Y4yXEr9Oxtdk6bjGY-119" value="" style="ellipse;whiteSpace=wrap;html=1;" vertex="1" parent="1">
          <mxGeometry x="366" y="615.9999999999999" width="56" height="21.47" as="geometry" />
        </mxCell>
        <mxCell id="-f8Y4yXEr9Oxtdk6bjGY-118" value="" style="ellipse;whiteSpace=wrap;html=1;" vertex="1" parent="1">
          <mxGeometry x="420" y="600" width="33" height="21.47" as="geometry" />
        </mxCell>
        <mxCell id="-f8Y4yXEr9Oxtdk6bjGY-117" value="" style="ellipse;whiteSpace=wrap;html=1;" vertex="1" parent="1">
          <mxGeometry x="453" y="585.38" width="33" height="21.47" as="geometry" />
        </mxCell>
        <mxCell id="-f8Y4yXEr9Oxtdk6bjGY-116" value="" style="ellipse;whiteSpace=wrap;html=1;" vertex="1" parent="1">
          <mxGeometry x="490" y="567.5" width="40" height="22.5" as="geometry" />
        </mxCell>
        <mxCell id="-f8Y4yXEr9Oxtdk6bjGY-108" value="" style="ellipse;whiteSpace=wrap;html=1;" vertex="1" parent="1">
          <mxGeometry x="502" y="540" width="38" height="20" as="geometry" />
        </mxCell>
        <mxCell id="-f8Y4yXEr9Oxtdk6bjGY-107" value="" style="ellipse;whiteSpace=wrap;html=1;" vertex="1" parent="1">
          <mxGeometry x="470" y="520" width="40" height="20" as="geometry" />
        </mxCell>
        <mxCell id="-f8Y4yXEr9Oxtdk6bjGY-95" value="" style="rounded=0;whiteSpace=wrap;html=1;" vertex="1" parent="1">
          <mxGeometry x="634.87" y="565.38" width="93.74" height="50.62" as="geometry" />
        </mxCell>
        <mxCell id="-f8Y4yXEr9Oxtdk6bjGY-94" value="" style="rounded=0;whiteSpace=wrap;html=1;" vertex="1" parent="1">
          <mxGeometry x="634.87" y="499.38" width="93.74" height="50.62" as="geometry" />
        </mxCell>
        <mxCell id="-f8Y4yXEr9Oxtdk6bjGY-93" value="" style="rounded=0;whiteSpace=wrap;html=1;" vertex="1" parent="1">
          <mxGeometry x="632.37" y="429.38" width="93.74" height="50.62" as="geometry" />
        </mxCell>
        <mxCell id="-f8Y4yXEr9Oxtdk6bjGY-92" value="" style="rounded=0;whiteSpace=wrap;html=1;" vertex="1" parent="1">
          <mxGeometry x="630" y="359.38" width="93.74" height="50.62" as="geometry" />
        </mxCell>
        <mxCell id="-f8Y4yXEr9Oxtdk6bjGY-91" value="" style="rounded=0;whiteSpace=wrap;html=1;" vertex="1" parent="1">
          <mxGeometry x="630" y="290" width="93.74" height="50.62" as="geometry" />
        </mxCell>
        <mxCell id="-f8Y4yXEr9Oxtdk6bjGY-79" value="" style="ellipse;whiteSpace=wrap;html=1;" vertex="1" parent="1">
          <mxGeometry x="420" y="410" width="80" height="40" as="geometry" />
        </mxCell>
        <mxCell id="-f8Y4yXEr9Oxtdk6bjGY-77" value="" style="ellipse;whiteSpace=wrap;html=1;" vertex="1" parent="1">
          <mxGeometry x="256.25" y="706.25" width="67.5" height="37.5" as="geometry" />
        </mxCell>
        <mxCell id="-f8Y4yXEr9Oxtdk6bjGY-74" value="" style="ellipse;whiteSpace=wrap;html=1;" vertex="1" parent="1">
          <mxGeometry x="360" y="545" width="60" height="35" as="geometry" />
        </mxCell>
        <mxCell id="-f8Y4yXEr9Oxtdk6bjGY-73" value="" style="ellipse;whiteSpace=wrap;html=1;" vertex="1" parent="1">
          <mxGeometry x="236.25" y="489.25" width="67.5" height="37.5" as="geometry" />
        </mxCell>
        <mxCell id="-f8Y4yXEr9Oxtdk6bjGY-72" value="" style="ellipse;whiteSpace=wrap;html=1;" vertex="1" parent="1">
          <mxGeometry x="236.25" y="446.25" width="67.5" height="37.5" as="geometry" />
        </mxCell>
        <mxCell id="-f8Y4yXEr9Oxtdk6bjGY-70" value="" style="ellipse;whiteSpace=wrap;html=1;" vertex="1" parent="1">
          <mxGeometry x="220" y="343.13" width="100" height="43.75" as="geometry" />
        </mxCell>
        <mxCell id="-f8Y4yXEr9Oxtdk6bjGY-69" value="" style="ellipse;whiteSpace=wrap;html=1;" vertex="1" parent="1">
          <mxGeometry x="210" y="287.5" width="70" height="42.5" as="geometry" />
        </mxCell>
        <mxCell id="-f8Y4yXEr9Oxtdk6bjGY-3" value="회원" style="shape=umlActor;verticalLabelPosition=bottom;verticalAlign=top;html=1;outlineConnect=0;" vertex="1" parent="1">
          <mxGeometry x="80" y="540" width="30" height="60" as="geometry" />
        </mxCell>
        <mxCell id="-f8Y4yXEr9Oxtdk6bjGY-9" value="비회원" style="shape=umlActor;verticalLabelPosition=bottom;verticalAlign=top;html=1;outlineConnect=0;" vertex="1" parent="1">
          <mxGeometry x="80" y="350" width="30" height="60" as="geometry" />
        </mxCell>
        <mxCell id="-f8Y4yXEr9Oxtdk6bjGY-10" value="&lt;font style=&quot;font-size: 20px;&quot;&gt;Resumate&lt;/font&gt;" style="text;html=1;strokeColor=none;fillColor=none;align=center;verticalAlign=middle;whiteSpace=wrap;rounded=0;" vertex="1" parent="1">
          <mxGeometry x="340" y="150" width="100" height="30" as="geometry" />
        </mxCell>
        <mxCell id="-f8Y4yXEr9Oxtdk6bjGY-13" value="" style="endArrow=classic;html=1;rounded=0;entryX=0;entryY=0.75;entryDx=0;entryDy=0;" edge="1" parent="1" target="-f8Y4yXEr9Oxtdk6bjGY-15">
          <mxGeometry width="50" height="50" relative="1" as="geometry">
            <mxPoint x="120" y="370" as="sourcePoint" />
            <mxPoint x="211" y="320" as="targetPoint" />
          </mxGeometry>
        </mxCell>
        <mxCell id="-f8Y4yXEr9Oxtdk6bjGY-15" value="회원가입" style="text;html=1;strokeColor=none;fillColor=none;align=center;verticalAlign=middle;whiteSpace=wrap;rounded=0;" vertex="1" parent="1">
          <mxGeometry x="216" y="293.75" width="60" height="30" as="geometry" />
        </mxCell>
        <mxCell id="-f8Y4yXEr9Oxtdk6bjGY-16" value="채용공고 조회" style="text;html=1;strokeColor=none;fillColor=none;align=center;verticalAlign=middle;whiteSpace=wrap;rounded=0;" vertex="1" parent="1">
          <mxGeometry x="229.25" y="350" width="80" height="30" as="geometry" />
        </mxCell>
        <mxCell id="-f8Y4yXEr9Oxtdk6bjGY-17" value="암호변경" style="text;html=1;strokeColor=none;fillColor=none;align=center;verticalAlign=middle;whiteSpace=wrap;rounded=0;" vertex="1" parent="1">
          <mxGeometry x="240" y="450" width="60" height="30" as="geometry" />
        </mxCell>
        <mxCell id="-f8Y4yXEr9Oxtdk6bjGY-18" value="회원탈퇴" style="text;html=1;strokeColor=none;fillColor=none;align=center;verticalAlign=middle;whiteSpace=wrap;rounded=0;" vertex="1" parent="1">
          <mxGeometry x="240" y="493" width="60" height="30" as="geometry" />
        </mxCell>
        <mxCell id="-f8Y4yXEr9Oxtdk6bjGY-20" value="" style="endArrow=classic;html=1;rounded=0;" edge="1" parent="1" target="-f8Y4yXEr9Oxtdk6bjGY-70">
          <mxGeometry width="50" height="50" relative="1" as="geometry">
            <mxPoint x="120" y="370" as="sourcePoint" />
            <mxPoint x="170" y="370" as="targetPoint" />
          </mxGeometry>
        </mxCell>
        <mxCell id="-f8Y4yXEr9Oxtdk6bjGY-21" value="" style="endArrow=classic;html=1;rounded=0;entryX=0;entryY=1;entryDx=0;entryDy=0;" edge="1" parent="1" target="-f8Y4yXEr9Oxtdk6bjGY-16">
          <mxGeometry width="50" height="50" relative="1" as="geometry">
            <mxPoint x="120" y="560" as="sourcePoint" />
            <mxPoint x="213.5999999999999" y="380" as="targetPoint" />
          </mxGeometry>
        </mxCell>
        <mxCell id="-f8Y4yXEr9Oxtdk6bjGY-22" value="" style="endArrow=classic;html=1;rounded=0;entryX=0;entryY=0.5;entryDx=0;entryDy=0;" edge="1" parent="1" target="-f8Y4yXEr9Oxtdk6bjGY-17">
          <mxGeometry width="50" height="50" relative="1" as="geometry">
            <mxPoint x="120" y="560" as="sourcePoint" />
            <mxPoint x="180" y="510" as="targetPoint" />
          </mxGeometry>
        </mxCell>
        <mxCell id="-f8Y4yXEr9Oxtdk6bjGY-23" value="" style="endArrow=classic;html=1;rounded=0;entryX=0;entryY=0.75;entryDx=0;entryDy=0;" edge="1" parent="1" target="-f8Y4yXEr9Oxtdk6bjGY-18">
          <mxGeometry width="50" height="50" relative="1" as="geometry">
            <mxPoint x="120" y="560" as="sourcePoint" />
            <mxPoint x="240" y="510" as="targetPoint" />
          </mxGeometry>
        </mxCell>
        <mxCell id="-f8Y4yXEr9Oxtdk6bjGY-24" value="" style="endArrow=classic;html=1;rounded=0;" edge="1" parent="1" target="-f8Y4yXEr9Oxtdk6bjGY-25">
          <mxGeometry width="50" height="50" relative="1" as="geometry">
            <mxPoint x="120" y="560" as="sourcePoint" />
            <mxPoint x="330" y="470" as="targetPoint" />
          </mxGeometry>
        </mxCell>
        <mxCell id="-f8Y4yXEr9Oxtdk6bjGY-25" value="이력서" style="text;html=1;strokeColor=none;fillColor=none;align=center;verticalAlign=middle;whiteSpace=wrap;rounded=0;" vertex="1" parent="1">
          <mxGeometry x="363" y="550" width="54" height="25" as="geometry" />
        </mxCell>
        <mxCell id="-f8Y4yXEr9Oxtdk6bjGY-26" value="" style="endArrow=classic;html=1;rounded=0;entryX=0.164;entryY=0.022;entryDx=0;entryDy=0;entryPerimeter=0;" edge="1" parent="1" target="-f8Y4yXEr9Oxtdk6bjGY-27">
          <mxGeometry width="50" height="50" relative="1" as="geometry">
            <mxPoint x="120" y="560" as="sourcePoint" />
            <mxPoint x="170" y="595" as="targetPoint" />
          </mxGeometry>
        </mxCell>
        <mxCell id="-f8Y4yXEr9Oxtdk6bjGY-27" value="자기소개서" style="text;html=1;strokeColor=none;fillColor=none;align=center;verticalAlign=middle;whiteSpace=wrap;rounded=0;" vertex="1" parent="1">
          <mxGeometry x="256.25" y="710" width="70" height="30" as="geometry" />
        </mxCell>
        <mxCell id="-f8Y4yXEr9Oxtdk6bjGY-28" value="" style="endArrow=classic;html=1;rounded=0;exitX=0.896;exitY=0.011;exitDx=0;exitDy=0;exitPerimeter=0;entryX=0.013;entryY=0.66;entryDx=0;entryDy=0;entryPerimeter=0;" edge="1" parent="1" source="-f8Y4yXEr9Oxtdk6bjGY-25" target="-f8Y4yXEr9Oxtdk6bjGY-30">
          <mxGeometry width="50" height="50" relative="1" as="geometry">
            <mxPoint x="400" y="550" as="sourcePoint" />
            <mxPoint x="420" y="530" as="targetPoint" />
          </mxGeometry>
        </mxCell>
        <mxCell id="-f8Y4yXEr9Oxtdk6bjGY-30" value="추가" style="text;strokeColor=none;fillColor=none;align=left;verticalAlign=middle;spacingLeft=4;spacingRight=4;overflow=hidden;points=[[0,0.5],[1,0.5]];portConstraint=eastwest;rotatable=0;whiteSpace=wrap;html=1;" vertex="1" parent="1">
          <mxGeometry x="470" y="520" width="40" height="20" as="geometry" />
        </mxCell>
        <mxCell id="-f8Y4yXEr9Oxtdk6bjGY-31" value="" style="endArrow=classic;html=1;rounded=0;entryX=0;entryY=0.5;entryDx=0;entryDy=0;exitX=0.964;exitY=0.299;exitDx=0;exitDy=0;exitPerimeter=0;" edge="1" parent="1" source="-f8Y4yXEr9Oxtdk6bjGY-74" target="-f8Y4yXEr9Oxtdk6bjGY-32">
          <mxGeometry width="50" height="50" relative="1" as="geometry">
            <mxPoint x="418" y="554" as="sourcePoint" />
            <mxPoint x="470" y="500" as="targetPoint" />
          </mxGeometry>
        </mxCell>
        <mxCell id="-f8Y4yXEr9Oxtdk6bjGY-32" value="수정" style="text;strokeColor=none;fillColor=none;align=left;verticalAlign=middle;spacingLeft=4;spacingRight=4;overflow=hidden;points=[[0,0.5],[1,0.5]];portConstraint=eastwest;rotatable=0;whiteSpace=wrap;html=1;" vertex="1" parent="1">
          <mxGeometry x="502" y="540" width="38" height="20" as="geometry" />
        </mxCell>
        <mxCell id="-f8Y4yXEr9Oxtdk6bjGY-33" value="" style="endArrow=classic;html=1;rounded=0;entryX=0;entryY=0.5;entryDx=0;entryDy=0;" edge="1" parent="1" target="-f8Y4yXEr9Oxtdk6bjGY-34">
          <mxGeometry width="50" height="50" relative="1" as="geometry">
            <mxPoint x="420" y="560" as="sourcePoint" />
            <mxPoint x="485" y="515" as="targetPoint" />
          </mxGeometry>
        </mxCell>
        <mxCell id="-f8Y4yXEr9Oxtdk6bjGY-34" value="복사" style="text;strokeColor=none;fillColor=none;align=left;verticalAlign=middle;spacingLeft=4;spacingRight=4;overflow=hidden;points=[[0,0.5],[1,0.5]];portConstraint=eastwest;rotatable=0;whiteSpace=wrap;html=1;" vertex="1" parent="1">
          <mxGeometry x="490" y="568" width="40" height="22" as="geometry" />
        </mxCell>
        <mxCell id="-f8Y4yXEr9Oxtdk6bjGY-40" value="" style="endArrow=classic;html=1;rounded=0;exitX=0.99;exitY=0.646;exitDx=0;exitDy=0;exitPerimeter=0;entryX=-0.061;entryY=0.232;entryDx=0;entryDy=0;entryPerimeter=0;" edge="1" parent="1" source="-f8Y4yXEr9Oxtdk6bjGY-74" target="-f8Y4yXEr9Oxtdk6bjGY-41">
          <mxGeometry width="50" height="50" relative="1" as="geometry">
            <mxPoint x="423.88" y="565.66" as="sourcePoint" />
            <mxPoint x="450" y="580" as="targetPoint" />
          </mxGeometry>
        </mxCell>
        <mxCell id="-f8Y4yXEr9Oxtdk6bjGY-41" value="조회" style="text;html=1;strokeColor=none;fillColor=none;align=center;verticalAlign=middle;whiteSpace=wrap;rounded=0;" vertex="1" parent="1">
          <mxGeometry x="455.5" y="586.85" width="28" height="20" as="geometry" />
        </mxCell>
        <mxCell id="-f8Y4yXEr9Oxtdk6bjGY-42" value="" style="endArrow=classic;html=1;rounded=0;exitX=0.912;exitY=1.001;exitDx=0;exitDy=0;exitPerimeter=0;entryX=0.371;entryY=0.133;entryDx=0;entryDy=0;entryPerimeter=0;" edge="1" parent="1" source="-f8Y4yXEr9Oxtdk6bjGY-25" target="-f8Y4yXEr9Oxtdk6bjGY-43">
          <mxGeometry width="50" height="50" relative="1" as="geometry">
            <mxPoint x="330" y="590" as="sourcePoint" />
            <mxPoint x="380" y="540" as="targetPoint" />
          </mxGeometry>
        </mxCell>
        <mxCell id="-f8Y4yXEr9Oxtdk6bjGY-43" value="삭제" style="text;strokeColor=none;fillColor=none;align=left;verticalAlign=middle;spacingLeft=4;spacingRight=4;overflow=hidden;points=[[0,0.5],[1,0.5]];portConstraint=eastwest;rotatable=0;whiteSpace=wrap;html=1;" vertex="1" parent="1">
          <mxGeometry x="418" y="595.73" width="35" height="30" as="geometry" />
        </mxCell>
        <mxCell id="-f8Y4yXEr9Oxtdk6bjGY-44" value="" style="endArrow=classic;html=1;rounded=0;exitX=0.593;exitY=1.044;exitDx=0;exitDy=0;exitPerimeter=0;entryX=0.479;entryY=0.049;entryDx=0;entryDy=0;entryPerimeter=0;" edge="1" parent="1" source="-f8Y4yXEr9Oxtdk6bjGY-74" target="-f8Y4yXEr9Oxtdk6bjGY-45">
          <mxGeometry width="50" height="50" relative="1" as="geometry">
            <mxPoint x="402.0899999999999" y="578.825" as="sourcePoint" />
            <mxPoint x="408" y="599" as="targetPoint" />
          </mxGeometry>
        </mxCell>
        <mxCell id="-f8Y4yXEr9Oxtdk6bjGY-45" value="다운로드" style="text;strokeColor=none;fillColor=none;align=left;verticalAlign=middle;spacingLeft=4;spacingRight=4;overflow=hidden;points=[[0,0.5],[1,0.5]];portConstraint=eastwest;rotatable=0;whiteSpace=wrap;html=1;" vertex="1" parent="1">
          <mxGeometry x="365" y="611.85" width="65" height="30.38" as="geometry" />
        </mxCell>
        <mxCell id="-f8Y4yXEr9Oxtdk6bjGY-46" value="" style="endArrow=classic;html=1;rounded=0;exitX=0.344;exitY=1.051;exitDx=0;exitDy=0;dashed=1;exitPerimeter=0;" edge="1" parent="1" source="-f8Y4yXEr9Oxtdk6bjGY-74" target="-f8Y4yXEr9Oxtdk6bjGY-27">
          <mxGeometry width="50" height="50" relative="1" as="geometry">
            <mxPoint x="330" y="590" as="sourcePoint" />
            <mxPoint x="380" y="540" as="targetPoint" />
          </mxGeometry>
        </mxCell>
        <mxCell id="-f8Y4yXEr9Oxtdk6bjGY-48" value="" style="endArrow=classic;html=1;rounded=0;entryX=0.551;entryY=0.08;entryDx=0;entryDy=0;entryPerimeter=0;" edge="1" parent="1" target="-f8Y4yXEr9Oxtdk6bjGY-49">
          <mxGeometry width="50" height="50" relative="1" as="geometry">
            <mxPoint x="270.58333333333337" y="740" as="sourcePoint" />
            <mxPoint x="258.91666666666663" y="755" as="targetPoint" />
          </mxGeometry>
        </mxCell>
        <mxCell id="-f8Y4yXEr9Oxtdk6bjGY-49" value="복사" style="text;strokeColor=none;fillColor=none;align=left;verticalAlign=middle;spacingLeft=4;spacingRight=4;overflow=hidden;points=[[0,0.5],[1,0.5]];portConstraint=eastwest;rotatable=0;whiteSpace=wrap;html=1;" vertex="1" parent="1">
          <mxGeometry x="236.25" y="755" width="40" height="30" as="geometry" />
        </mxCell>
        <mxCell id="-f8Y4yXEr9Oxtdk6bjGY-50" value="" style="endArrow=classic;html=1;rounded=0;exitX=0.857;exitY=0.167;exitDx=0;exitDy=0;exitPerimeter=0;" edge="1" parent="1">
          <mxGeometry width="50" height="50" relative="1" as="geometry">
            <mxPoint x="318.24" y="715.0100000000001" as="sourcePoint" />
            <mxPoint x="358.25" y="715.0033327778705" as="targetPoint" />
          </mxGeometry>
        </mxCell>
        <mxCell id="-f8Y4yXEr9Oxtdk6bjGY-51" value="수정" style="text;strokeColor=none;fillColor=none;align=left;verticalAlign=middle;spacingLeft=4;spacingRight=4;overflow=hidden;points=[[0,0.5],[1,0.5]];portConstraint=eastwest;rotatable=0;whiteSpace=wrap;html=1;" vertex="1" parent="1">
          <mxGeometry x="356.25" y="700" width="40" height="30" as="geometry" />
        </mxCell>
        <mxCell id="-f8Y4yXEr9Oxtdk6bjGY-52" value="" style="endArrow=classic;html=1;rounded=0;entryX=0.15;entryY=0.267;entryDx=0;entryDy=0;entryPerimeter=0;exitX=1;exitY=0.5;exitDx=0;exitDy=0;" edge="1" parent="1">
          <mxGeometry width="50" height="50" relative="1" as="geometry">
            <mxPoint x="324.25" y="725" as="sourcePoint" />
            <mxPoint x="363.65" y="734.476" as="targetPoint" />
          </mxGeometry>
        </mxCell>
        <mxCell id="-f8Y4yXEr9Oxtdk6bjGY-53" value="추가" style="text;strokeColor=none;fillColor=none;align=left;verticalAlign=middle;spacingLeft=4;spacingRight=4;overflow=hidden;points=[[0,0.5],[1,0.5]];portConstraint=eastwest;rotatable=0;whiteSpace=wrap;html=1;" vertex="1" parent="1">
          <mxGeometry x="360.25" y="729" width="36" height="28" as="geometry" />
        </mxCell>
        <mxCell id="-f8Y4yXEr9Oxtdk6bjGY-54" value="" style="endArrow=classic;html=1;rounded=0;exitX=1;exitY=0.75;exitDx=0;exitDy=0;entryX=0.25;entryY=0;entryDx=0;entryDy=0;" edge="1" parent="1" target="-f8Y4yXEr9Oxtdk6bjGY-55">
          <mxGeometry width="50" height="50" relative="1" as="geometry">
            <mxPoint x="321.25" y="732.5" as="sourcePoint" />
            <mxPoint x="360" y="760" as="targetPoint" />
          </mxGeometry>
        </mxCell>
        <mxCell id="-f8Y4yXEr9Oxtdk6bjGY-55" value="조회" style="text;html=1;strokeColor=none;fillColor=none;align=center;verticalAlign=middle;whiteSpace=wrap;rounded=0;" vertex="1" parent="1">
          <mxGeometry x="354" y="765" width="40" height="20" as="geometry" />
        </mxCell>
        <mxCell id="-f8Y4yXEr9Oxtdk6bjGY-56" value="" style="endArrow=classic;html=1;rounded=0;entryX=0.376;entryY=0.064;entryDx=0;entryDy=0;entryPerimeter=0;" edge="1" parent="1" target="-f8Y4yXEr9Oxtdk6bjGY-57">
          <mxGeometry width="50" height="50" relative="1" as="geometry">
            <mxPoint x="312.25" y="739" as="sourcePoint" />
            <mxPoint x="325.2631578947369" y="762" as="targetPoint" />
          </mxGeometry>
        </mxCell>
        <mxCell id="-f8Y4yXEr9Oxtdk6bjGY-57" value="삭제" style="text;strokeColor=none;fillColor=none;align=left;verticalAlign=middle;spacingLeft=4;spacingRight=4;overflow=hidden;points=[[0,0.5],[1,0.5]];portConstraint=eastwest;rotatable=0;whiteSpace=wrap;html=1;" vertex="1" parent="1">
          <mxGeometry x="316.25" y="760" width="35" height="30" as="geometry" />
        </mxCell>
        <mxCell id="-f8Y4yXEr9Oxtdk6bjGY-58" value="" style="endArrow=classic;html=1;rounded=0;entryX=0.508;entryY=-0.005;entryDx=0;entryDy=0;entryPerimeter=0;exitX=0.5;exitY=1;exitDx=0;exitDy=0;" edge="1" parent="1" target="-f8Y4yXEr9Oxtdk6bjGY-59">
          <mxGeometry width="50" height="50" relative="1" as="geometry">
            <mxPoint x="290.25" y="744" as="sourcePoint" />
            <mxPoint x="291.385" y="771.4899999999999" as="targetPoint" />
          </mxGeometry>
        </mxCell>
        <mxCell id="-f8Y4yXEr9Oxtdk6bjGY-59" value="다운로드" style="text;strokeColor=none;fillColor=none;align=left;verticalAlign=middle;spacingLeft=4;spacingRight=4;overflow=hidden;points=[[0,0.5],[1,0.5]];portConstraint=eastwest;rotatable=0;whiteSpace=wrap;html=1;" vertex="1" parent="1">
          <mxGeometry x="261.25" y="778" width="58.75" height="30" as="geometry" />
        </mxCell>
        <mxCell id="-f8Y4yXEr9Oxtdk6bjGY-61" value="사용자 인증" style="text;strokeColor=none;fillColor=none;align=left;verticalAlign=middle;spacingLeft=4;spacingRight=4;overflow=hidden;points=[[0,0.5],[1,0.5]];portConstraint=eastwest;rotatable=0;whiteSpace=wrap;html=1;" vertex="1" parent="1">
          <mxGeometry x="422" y="414" width="80" height="30" as="geometry" />
        </mxCell>
        <mxCell id="-f8Y4yXEr9Oxtdk6bjGY-62" value="" style="endArrow=classic;html=1;rounded=0;entryX=1;entryY=0.5;entryDx=0;entryDy=0;" edge="1" parent="1" target="-f8Y4yXEr9Oxtdk6bjGY-17">
          <mxGeometry width="50" height="50" relative="1" as="geometry">
            <mxPoint x="420" y="430" as="sourcePoint" />
            <mxPoint x="490" y="490" as="targetPoint" />
          </mxGeometry>
        </mxCell>
        <mxCell id="-f8Y4yXEr9Oxtdk6bjGY-63" value="" style="endArrow=classic;html=1;rounded=0;exitX=0;exitY=0.5;exitDx=0;exitDy=0;entryX=1;entryY=0.25;entryDx=0;entryDy=0;" edge="1" parent="1" source="-f8Y4yXEr9Oxtdk6bjGY-79" target="-f8Y4yXEr9Oxtdk6bjGY-18">
          <mxGeometry width="50" height="50" relative="1" as="geometry">
            <mxPoint x="410" y="500" as="sourcePoint" />
            <mxPoint x="460" y="450" as="targetPoint" />
          </mxGeometry>
        </mxCell>
        <mxCell id="-f8Y4yXEr9Oxtdk6bjGY-64" value="" style="endArrow=classic;html=1;rounded=0;entryX=0.448;entryY=-0.04;entryDx=0;entryDy=0;entryPerimeter=0;" edge="1" parent="1" target="-f8Y4yXEr9Oxtdk6bjGY-74">
          <mxGeometry width="50" height="50" relative="1" as="geometry">
            <mxPoint x="420" y="430" as="sourcePoint" />
            <mxPoint x="390" y="540" as="targetPoint" />
          </mxGeometry>
        </mxCell>
        <mxCell id="-f8Y4yXEr9Oxtdk6bjGY-81" value="&amp;lt;&amp;lt; actor&amp;gt;&amp;gt;" style="text;html=1;align=center;verticalAlign=middle;whiteSpace=wrap;rounded=0;" vertex="1" parent="1">
          <mxGeometry x="641.24" y="287.5" width="70" height="30" as="geometry" />
        </mxCell>
        <mxCell id="-f8Y4yXEr9Oxtdk6bjGY-82" value="워크넷" style="text;html=1;align=center;verticalAlign=middle;whiteSpace=wrap;rounded=0;" vertex="1" parent="1">
          <mxGeometry x="646.24" y="313.13" width="60" height="30" as="geometry" />
        </mxCell>
        <mxCell id="-f8Y4yXEr9Oxtdk6bjGY-83" value="&amp;lt;&amp;lt; actor&amp;gt;&amp;gt;" style="text;html=1;strokeColor=none;fillColor=none;align=center;verticalAlign=middle;whiteSpace=wrap;rounded=0;" vertex="1" parent="1">
          <mxGeometry x="641.74" y="358.37" width="70" height="30" as="geometry" />
        </mxCell>
        <mxCell id="-f8Y4yXEr9Oxtdk6bjGY-84" value="인증서비스" style="text;html=1;strokeColor=none;fillColor=none;align=center;verticalAlign=middle;whiteSpace=wrap;rounded=0;" vertex="1" parent="1">
          <mxGeometry x="646.74" y="384" width="65" height="30" as="geometry" />
        </mxCell>
        <mxCell id="-f8Y4yXEr9Oxtdk6bjGY-85" value="&amp;lt;&amp;lt; actor&amp;gt;&amp;gt;" style="text;html=1;strokeColor=none;fillColor=none;align=center;verticalAlign=middle;whiteSpace=wrap;rounded=0;" vertex="1" parent="1">
          <mxGeometry x="644.24" y="429.69" width="70" height="30" as="geometry" />
        </mxCell>
        <mxCell id="-f8Y4yXEr9Oxtdk6bjGY-86" value="이력서서비스" style="text;html=1;strokeColor=none;fillColor=none;align=center;verticalAlign=middle;whiteSpace=wrap;rounded=0;" vertex="1" parent="1">
          <mxGeometry x="637.24" y="449.32" width="82.5" height="30" as="geometry" />
        </mxCell>
        <mxCell id="-f8Y4yXEr9Oxtdk6bjGY-87" value="&amp;lt;&amp;lt; actor&amp;gt;&amp;gt;" style="text;html=1;strokeColor=none;fillColor=none;align=center;verticalAlign=middle;whiteSpace=wrap;rounded=0;" vertex="1" parent="1">
          <mxGeometry x="646.74" y="494.38" width="70" height="30" as="geometry" />
        </mxCell>
        <mxCell id="-f8Y4yXEr9Oxtdk6bjGY-88" value="자소서서비스" style="text;html=1;strokeColor=none;fillColor=none;align=center;verticalAlign=middle;whiteSpace=wrap;rounded=0;" vertex="1" parent="1">
          <mxGeometry x="643.74" y="519.38" width="82.5" height="30" as="geometry" />
        </mxCell>
        <mxCell id="-f8Y4yXEr9Oxtdk6bjGY-89" value="&amp;lt;&amp;lt; actor&amp;gt;&amp;gt;" style="text;html=1;strokeColor=none;fillColor=none;align=center;verticalAlign=middle;whiteSpace=wrap;rounded=0;" vertex="1" parent="1">
          <mxGeometry x="647.49" y="560.38" width="70" height="30" as="geometry" />
        </mxCell>
        <mxCell id="-f8Y4yXEr9Oxtdk6bjGY-90" value="텍스트생성&lt;br&gt;AI모델" style="text;html=1;strokeColor=none;fillColor=none;align=center;verticalAlign=middle;whiteSpace=wrap;rounded=0;" vertex="1" parent="1">
          <mxGeometry x="641.99" y="585.38" width="77.5" height="30" as="geometry" />
        </mxCell>
        <mxCell id="-f8Y4yXEr9Oxtdk6bjGY-96" value="" style="endArrow=classic;html=1;rounded=0;exitX=0;exitY=0.5;exitDx=0;exitDy=0;entryX=1;entryY=0.5;entryDx=0;entryDy=0;" edge="1" parent="1" source="-f8Y4yXEr9Oxtdk6bjGY-92" target="-f8Y4yXEr9Oxtdk6bjGY-61">
          <mxGeometry width="50" height="50" relative="1" as="geometry">
            <mxPoint x="300" y="530" as="sourcePoint" />
            <mxPoint x="350" y="480" as="targetPoint" />
          </mxGeometry>
        </mxCell>
        <mxCell id="-f8Y4yXEr9Oxtdk6bjGY-97" value="" style="endArrow=classic;html=1;rounded=0;entryX=1;entryY=0.5;entryDx=0;entryDy=0;exitX=0;exitY=0.5;exitDx=0;exitDy=0;" edge="1" parent="1" source="-f8Y4yXEr9Oxtdk6bjGY-92" target="-f8Y4yXEr9Oxtdk6bjGY-69">
          <mxGeometry width="50" height="50" relative="1" as="geometry">
            <mxPoint x="300" y="530" as="sourcePoint" />
            <mxPoint x="350" y="480" as="targetPoint" />
          </mxGeometry>
        </mxCell>
        <mxCell id="-f8Y4yXEr9Oxtdk6bjGY-98" value="" style="endArrow=classic;html=1;rounded=0;entryX=1;entryY=0.5;entryDx=0;entryDy=0;exitX=0;exitY=0.5;exitDx=0;exitDy=0;" edge="1" parent="1" source="-f8Y4yXEr9Oxtdk6bjGY-91" target="-f8Y4yXEr9Oxtdk6bjGY-70">
          <mxGeometry width="50" height="50" relative="1" as="geometry">
            <mxPoint x="300" y="530" as="sourcePoint" />
            <mxPoint x="350" y="480" as="targetPoint" />
          </mxGeometry>
        </mxCell>
        <mxCell id="-f8Y4yXEr9Oxtdk6bjGY-99" value="" style="endArrow=classic;html=1;rounded=0;entryX=0.712;entryY=0.001;entryDx=0;entryDy=0;entryPerimeter=0;" edge="1" parent="1" target="-f8Y4yXEr9Oxtdk6bjGY-74">
          <mxGeometry width="50" height="50" relative="1" as="geometry">
            <mxPoint x="630" y="450" as="sourcePoint" />
            <mxPoint x="400" y="540" as="targetPoint" />
          </mxGeometry>
        </mxCell>
        <mxCell id="-f8Y4yXEr9Oxtdk6bjGY-102" value="" style="endArrow=classic;html=1;rounded=0;entryX=0.86;entryY=-0.011;entryDx=0;entryDy=0;entryPerimeter=0;exitX=0;exitY=1;exitDx=0;exitDy=0;" edge="1" parent="1" source="-f8Y4yXEr9Oxtdk6bjGY-94" target="-f8Y4yXEr9Oxtdk6bjGY-27">
          <mxGeometry width="50" height="50" relative="1" as="geometry">
            <mxPoint x="440" y="490" as="sourcePoint" />
            <mxPoint x="490" y="440" as="targetPoint" />
          </mxGeometry>
        </mxCell>
        <mxCell id="-f8Y4yXEr9Oxtdk6bjGY-103" value="" style="endArrow=classic;html=1;rounded=0;entryX=0.959;entryY=0.342;entryDx=0;entryDy=0;exitX=0;exitY=1;exitDx=0;exitDy=0;entryPerimeter=0;" edge="1" parent="1" source="-f8Y4yXEr9Oxtdk6bjGY-95" target="-f8Y4yXEr9Oxtdk6bjGY-53">
          <mxGeometry width="50" height="50" relative="1" as="geometry">
            <mxPoint x="500" y="710" as="sourcePoint" />
            <mxPoint x="550" y="660" as="targetPoint" />
          </mxGeometry>
        </mxCell>
        <mxCell id="-f8Y4yXEr9Oxtdk6bjGY-104" value="" style="endArrow=classic;html=1;rounded=0;exitX=0;exitY=1;exitDx=0;exitDy=0;" edge="1" parent="1" source="-f8Y4yXEr9Oxtdk6bjGY-95">
          <mxGeometry width="50" height="50" relative="1" as="geometry">
            <mxPoint x="410" y="630" as="sourcePoint" />
            <mxPoint x="390" y="710" as="targetPoint" />
          </mxGeometry>
        </mxCell>
      </root>
    </mxGraphModel>
  </diagram>
</mxfile>
